<?xml version="1.0" encoding="utf-8"?>
<!-- Generator: Adobe Illustrator 16.0.0, SVG Export Plug-In . SVG Version: 6.00 Build 0)  -->
<!DOCTYPE svg PUBLIC "-//W3C//DTD SVG 1.1//EN" "http://www.w3.org/Graphics/SVG/1.1/DTD/svg11.dtd">
<svg version="1.1" id="Layer_1" xmlns="http://www.w3.org/2000/svg" xmlns:xlink="http://www.w3.org/1999/xlink" x="0px" y="0px"
	 width="197.616px" height="104.768px" viewBox="2.384 97.682 197.616 104.768"
	 enable-background="new 2.384 97.682 197.616 104.768" xml:space="preserve">
<g>
	<g>
		<g>
			<g>
				<path fill="#003645" d="M113.377,140.729l1.061,3.708h-6.357c-1.855,0-3.709,1.854-3.709,3.708v11.126h-3.709v-18.543h3.709
					v3.444c0.133-1.854,1.722-3.444,3.709-3.444H113.377z"/>
				<path fill="#003645" d="M128.344,140.729c3.047,0,5.563,2.517,5.563,5.563v5.563h-11.126v1.854c0,1.059,0.795,1.854,1.854,1.854
					h8.609l-1.06,3.709h-7.418c-3.046,0-5.563-2.517-5.563-5.563v-7.417c0-3.046,2.517-5.563,5.563-5.563H128.344z M124.636,144.437
					c-1.06,0-1.854,0.795-1.854,1.854v1.854h7.418v-1.854c0-1.06-0.795-1.854-1.855-1.854H124.636z"/>
				<path fill="#003645" d="M156.821,144.437c-1.06,0-1.854,0.795-1.854,1.854v12.98h-3.709v-12.98c0-1.06-0.927-1.854-1.854-1.854
					h-3.709c-1.06,0-1.854,0.795-1.854,1.854v12.98h-3.708v-12.98c0-3.046,2.516-5.563,5.563-5.563h3.709
					c1.457,0,2.781,0.53,3.709,1.457c0.926-0.795,2.251-1.457,3.708-1.457h3.708c3.047,0,5.563,2.517,5.563,5.563v12.98h-3.708
					v-12.98c0-1.06-0.795-1.854-1.855-1.854H156.821z"/>
				<path fill="#003645" d="M198.146,97.682c-1.986,2.251-4.106,4.503-6.093,6.755l-6.225,6.623l-6.226,6.623
					c-2.119,2.251-4.238,4.371-6.226,6.623l0.133-1.192c0.529,2.384,0.928,4.769,1.324,7.02c0.398,2.384,0.662,4.768,0.928,7.152
					c0.265,2.384,0.396,4.768,0.529,7.152s0.133,4.768,0,7.153c-0.133,4.768-0.529,9.668-1.854,14.437
					c-0.662,2.384-1.457,4.769-2.649,7.021l-0.927,1.589l-1.192,1.589l-1.325,1.457l-1.457,1.192l-1.589,1.192
					c-0.53,0.396-1.06,0.662-1.589,0.927c-1.061,0.53-2.252,1.192-3.443,1.59c-2.252,0.927-4.637,1.589-7.021,2.119
					s-4.769,0.927-7.152,1.192c-2.384,0.265-4.769,0.529-7.152,0.662c-4.769,0.265-9.536,0.265-14.305,0
					c-4.769-0.266-9.536-0.662-14.173-1.457c4.77,0.133,9.537,0.265,14.173,0.133c2.384,0,4.769-0.133,7.021-0.266
					c2.383-0.133,4.768-0.265,7.02-0.529c4.635-0.53,9.271-1.192,13.774-2.385c2.252-0.529,4.371-1.324,6.49-2.252
					c1.06-0.396,1.987-0.927,3.046-1.457l1.457-0.927l1.192-0.927l1.192-1.192l1.059-1.192l0.928-1.324l0.795-1.457
					c1.06-1.986,1.854-4.105,2.385-6.225c0.529-2.252,0.926-4.504,1.324-6.756c0.265-2.251,0.396-4.635,0.529-6.887
					c0.133-2.384,0.133-4.636,0-7.02c0-2.384-0.133-4.636-0.397-7.02c-0.132-2.384-0.397-4.636-0.662-7.02
					c-0.265-2.384-0.53-4.636-0.927-7.02l-0.133-0.662l0.397-0.397c2.251-2.119,4.37-4.238,6.622-6.357l6.623-6.226l6.622-6.225
					C193.51,101.656,195.762,99.669,198.146,97.682"/>
				<path fill="#003645" d="M68.742,202.45c1.987-2.251,4.106-4.503,6.093-6.755l6.225-6.755l6.225-6.622
					c2.119-2.252,4.238-4.371,6.358-6.623l-0.397,1.191c-0.53-2.383-0.927-4.768-1.325-7.02c-0.397-2.384-0.662-4.768-0.927-7.152
					c-0.265-2.384-0.397-4.768-0.53-7.152c-0.132-2.384-0.132-4.768,0-7.152c0.133-4.768,0.53-9.669,1.854-14.437
					c0.662-2.384,1.457-4.769,2.649-7.02l0.927-1.589l1.192-1.589l1.325-1.457l1.457-1.192l1.589-1.192
					c0.529-0.397,1.06-0.662,1.59-0.927c1.059-0.53,2.251-1.192,3.443-1.59c2.252-0.927,4.636-1.589,7.02-2.119
					c2.385-0.53,4.769-0.927,7.152-1.192c2.385-0.265,4.769-0.53,7.152-0.662c4.769-0.265,9.537-0.265,14.305,0
					c4.768,0.265,9.537,0.662,14.172,1.457c-4.768-0.132-9.536-0.265-14.172-0.132c-2.385,0-4.768,0.132-7.02,0.265
					c-2.385,0.132-4.637,0.265-7.02,0.53c-4.637,0.53-9.271,1.192-13.775,2.384c-2.252,0.53-4.371,1.325-6.49,2.252
					c-1.06,0.397-1.986,0.927-3.047,1.457l-1.457,0.794l-1.191,0.927l-1.324,1.06l-1.06,1.192l-0.927,1.325l-0.795,1.457
					c-1.06,1.987-1.854,4.106-2.384,6.225c-0.53,2.251-0.927,4.503-1.324,6.755c-0.265,2.252-0.397,4.636-0.53,6.888
					c-0.132,2.384-0.132,4.636,0,7.02c0,2.384,0.132,4.636,0.397,7.021c0.132,2.384,0.397,4.635,0.662,7.02
					c0.265,2.384,0.53,4.636,0.927,7.02l0.132,0.662l-0.53,0.397c-2.251,2.12-4.371,4.239-6.623,6.358L82.119,190l-6.623,6.225
					C73.377,198.344,70.993,200.331,68.742,202.45"/>
				<rect x="3.179" y="133.179" fill="#003645" width="3.708" height="26.093"/>
				<path fill="#003645" d="M18.94,144.437c-1.06,0-1.854,0.795-1.854,1.854v12.98h-3.708v-12.98c0-3.046,2.517-5.563,5.563-5.563
					h3.708c3.046,0,5.563,2.517,5.563,5.563v12.98h-3.708v-12.98c0-1.06-0.795-1.854-1.854-1.854H18.94z"/>
				<path fill="#003645" d="M39.603,151.854c-3.046,0-5.563-2.517-5.563-5.563s2.517-5.563,5.563-5.563h8.212l1.06,3.708h-9.271
					c-1.06,0-1.854,0.795-1.854,1.854s0.794,1.854,2.251,1.854h3.708c3.046,0,5.563,2.517,5.563,5.563
					c0,3.046-2.517,5.563-5.563,5.563h-8.609l-1.06-3.709h9.669c1.06,0,1.854-0.795,1.854-1.854c0-1.061-0.795-1.854-2.252-1.854
					H39.603z"/>
				<path fill="#003645" d="M55.762,144.437h-3.708l1.06-3.708h2.649v-7.417h3.708v7.417h5.563l-1.06,3.708H59.47v9.272
					c0,1.059,0.795,1.854,1.854,1.854h3.708l-1.06,3.709h-2.649c-3.046,0-5.563-2.517-5.563-5.563V144.437z"/>
				<path fill="#003645" d="M70.066,144.437l1.06-3.708h7.417c3.046,0,5.563,2.517,5.563,5.563v12.98h-9.271
					c-3.046,0-5.563-2.517-5.563-5.563c0-3.047,2.517-5.563,5.563-5.563h5.563v-1.854c0-1.06-0.795-1.854-1.854-1.854
					C78.675,144.437,70.066,144.437,70.066,144.437z M80.53,155.563v-3.708h-5.563c-1.06,0-1.854,0.794-1.854,1.854
					c0,1.059,0.794,1.854,1.854,1.854H80.53L80.53,155.563z"/>
			</g>
		</g>
	</g>
	<g enable-background="new    ">
		<path fill="#76C152" d="M4.901,168.014c-0.927,0-1.325,0.265-1.325,0.927c0,0.397,0.132,0.53,0.265,0.662
			c0.265,0.132,0.662,0.265,1.457,0.53c0.795,0.265,1.325,0.396,1.589,0.795c0.265,0.264,0.397,0.794,0.397,1.324
			c0,0.795-0.265,1.324-0.662,1.722s-1.06,0.53-1.854,0.53c-0.662,0-1.324-0.133-1.987-0.266l-0.397-0.133l0.132-0.927
			c0.927,0.132,1.722,0.132,2.251,0.132c0.927,0,1.325-0.396,1.325-1.191c0-0.265-0.132-0.529-0.265-0.662
			c-0.265-0.133-0.662-0.266-1.324-0.529c-0.662-0.133-1.192-0.398-1.589-0.795c-0.397-0.266-0.53-0.795-0.53-1.457
			s0.265-1.192,0.662-1.457c0.397-0.397,1.06-0.53,1.854-0.53c0.53,0,1.192,0,1.986,0.133h0.397l-0.265,1.324
			C6.093,168.014,5.298,168.014,4.901,168.014z"/>
		<path fill="#76C152" d="M9.934,174.504v-7.418h4.636v1.06h-3.443v2.119h2.781v1.06h-2.781v2.119h3.443v1.061H9.934z"/>
		<path fill="#76C152" d="M17.219,174.504v-7.418h2.119l2.251,6.357h0.132v-6.357h1.192v7.418h-2.119l-2.252-6.358h-0.132v6.358
			H17.219z"/>
		<path fill="#76C152" d="M28.477,174.504H25.96v-7.418h2.517c1.192,0,1.986,0.266,2.384,0.928s0.662,1.457,0.662,2.781
			c0,0.662,0,1.191-0.132,1.59c-0.132,0.396-0.265,0.794-0.397,1.191C30.463,174.105,29.669,174.504,28.477,174.504z
			 M30.199,170.662c0-0.928-0.132-1.59-0.397-1.986c-0.265-0.397-0.662-0.662-1.324-0.662h-1.325v5.297h1.325
			c0.662,0,1.192-0.264,1.457-0.794c0.133-0.265,0.133-0.53,0.265-0.795C30.199,171.457,30.199,171.06,30.199,170.662z"/>
		<path fill="#76C152" d="M38.808,167.219c0.397-0.266,0.927-0.397,1.589-0.397c0.662,0,1.192,0.132,1.457,0.397
			c0.397,0.265,0.53,0.662,0.53,1.191c0,0.53-0.133,0.928-0.397,1.192c-0.265,0.265-0.662,0.662-1.192,0.927l1.324,1.325
			c0-0.133,0.132-0.397,0.132-0.663c0-0.396,0.133-0.662,0.133-0.794h1.192c-0.132,0.927-0.265,1.589-0.53,2.251l1.325,1.192
			l-0.663,0.795l-1.324-1.06c-0.265,0.397-0.53,0.529-0.927,0.795c-0.397,0.133-0.795,0.265-1.325,0.265
			c-1.06,0-1.722-0.132-2.119-0.53c-0.397-0.396-0.662-0.927-0.662-1.721c0-0.663,0.132-1.061,0.397-1.457
			c0.265-0.398,0.662-0.663,1.192-0.795c-0.265-0.266-0.53-0.662-0.53-0.795s-0.132-0.529-0.132-0.928
			C38.278,167.881,38.411,167.483,38.808,167.219z M40,173.576c0.397,0,0.662,0,0.927-0.133c0.265-0.133,0.53-0.265,0.662-0.529
			l-1.987-2.119c-0.397,0.133-0.662,0.265-0.794,0.529c-0.133,0.266-0.265,0.53-0.265,0.928
			C38.543,173.047,39.073,173.576,40,173.576z M39.47,168.676c0,0.396,0.132,0.662,0.53,1.059L40.265,170
			c0.397-0.266,0.662-0.397,0.794-0.662c0.132-0.266,0.265-0.397,0.265-0.662c0-0.53-0.265-0.795-0.927-0.795
			C39.735,167.881,39.47,168.146,39.47,168.676z"/>
		<path fill="#76C152" d="M52.45,168.014c-0.927,0-1.324,0.265-1.324,0.927c0,0.397,0.132,0.53,0.265,0.662
			c0.265,0.132,0.663,0.265,1.457,0.53c0.795,0.265,1.325,0.396,1.589,0.795c0.265,0.264,0.397,0.794,0.397,1.324
			c0,0.795-0.265,1.324-0.662,1.722c-0.397,0.397-1.06,0.53-1.854,0.53c-0.662,0-1.325-0.133-1.987-0.266l-0.397-0.133l0.133-0.927
			c0.927,0.132,1.722,0.132,2.251,0.132c0.927,0,1.325-0.396,1.325-1.191c0-0.265-0.133-0.529-0.265-0.662
			c-0.265-0.133-0.662-0.266-1.324-0.529c-0.663-0.133-1.192-0.398-1.59-0.795c-0.397-0.266-0.53-0.795-0.53-1.457
			s0.265-1.192,0.663-1.457c0.397-0.397,1.06-0.53,1.854-0.53c0.53,0,1.192,0,1.987,0.133h0.397l-0.265,1.324
			C53.643,168.014,52.848,168.014,52.45,168.014z"/>
		<path fill="#76C152" d="M56.689,174.504l1.854-7.418h2.384l1.854,7.418h-1.192l-0.397-1.59h-2.914l-0.397,1.59H56.689z
			 M59.47,168.014l-0.927,3.708h2.384L60,168.014H59.47z"/>
		<path fill="#76C152" d="M69.007,167.086h1.192l-1.854,7.418H65.96l-1.854-7.418h1.192l1.457,6.357h0.795L69.007,167.086z"/>
		<path fill="#76C152" d="M72.583,174.504v-7.418h4.636v1.06h-3.444v2.119h2.781v1.06h-2.781v2.119h3.444v1.061H72.583z"/>
	</g>
</g>
</svg>
